<svg width="128" height="128" viewBox="0 0 128 128" fill="none" xmlns="http://www.w3.org/2000/svg">
<path fill-rule="evenodd" clip-rule="evenodd" d="M76.3123 5.07709L105.752 34.597L64.1523 55.2371L22.7923 34.597L52.3123 5.07709C53.8709 3.47073 55.736 2.19358 57.7973 1.32147C59.8586 0.449363 62.0741 0 64.3123 0C66.5505 0 68.7659 0.449363 70.8272 1.32147C72.8885 2.19358 74.7538 3.47073 76.3123 5.07709ZM10.9521 46.5171L5.11218 52.3571C3.49578 53.9099 2.20978 55.7732 1.3313 57.8353C0.452815 59.8974 0 62.1157 0 64.3571C0 66.5985 0.452815 68.8168 1.3313 70.8789C2.20978 72.941 3.49578 74.8043 5.11218 76.3571L52.16 123.869C53.2751 125.01 54.573 125.956 56 126.669V69.0771L10.9521 46.5171ZM117.048 46.5171L122.888 52.3571C124.504 53.9099 125.79 55.7732 126.669 57.8353C127.547 59.8974 128 62.1157 128 64.3571C128 66.5985 127.547 68.8168 126.669 70.8789C125.79 72.941 124.504 74.8043 122.888 76.3571L75.84 123.869C74.7249 125.01 73.427 125.956 72 126.669V69.0771L117.048 46.5171Z" fill="black"/>
</svg>
